<?xml version="1.0" encoding="utf-8" standalone="no"?>
<!DOCTYPE svg PUBLIC "-//W3C//DTD SVG 1.1//EN"
  "http://www.w3.org/Graphics/SVG/1.1/DTD/svg11.dtd">
<!-- Created with matplotlib (https://matplotlib.org/) -->
<svg height="605.41pt" version="1.1" viewBox="0 0 818.231875 605.41" width="818.231875pt" xmlns="http://www.w3.org/2000/svg" xmlns:xlink="http://www.w3.org/1999/xlink">
 <defs>
  <style type="text/css">
*{stroke-linecap:butt;stroke-linejoin:round;}
  </style>
 </defs>
 <g id="figure_1">
  <g id="patch_1">
   <path d="M 0 605.41 
L 818.231875 605.41 
L 818.231875 0 
L 0 0 
z
" style="fill:#ffffff;"/>
  </g>
  <g id="axes_1">
   <g id="patch_2">
    <path d="M 249.531875 565.918125 
L 807.531875 565.918125 
L 807.531875 22.318125 
L 249.531875 22.318125 
z
" style="fill:#ffffff;"/>
   </g>
   <g id="patch_3">
    <path clip-path="url(#p553b33e1c9)" d="M 249.531875 558.368125 
L 355.817589 558.368125 
L 355.817589 543.268125 
L 249.531875 543.268125 
z
" style="fill:#1f77b4;"/>
   </g>
   <g id="patch_4">
    <path clip-path="url(#p553b33e1c9)" d="M 249.531875 528.168125 
L 355.817589 528.168125 
L 355.817589 513.068125 
L 249.531875 513.068125 
z
" style="fill:#ff7f0e;"/>
   </g>
   <g id="patch_5">
    <path clip-path="url(#p553b33e1c9)" d="M 249.531875 497.968125 
L 355.817589 497.968125 
L 355.817589 482.868125 
L 249.531875 482.868125 
z
" style="fill:#2ca02c;"/>
   </g>
   <g id="patch_6">
    <path clip-path="url(#p553b33e1c9)" d="M 249.531875 467.768125 
L 382.389018 467.768125 
L 382.389018 452.668125 
L 249.531875 452.668125 
z
" style="fill:#d62728;"/>
   </g>
   <g id="patch_7">
    <path clip-path="url(#p553b33e1c9)" d="M 249.531875 437.568125 
L 382.389018 437.568125 
L 382.389018 422.468125 
L 249.531875 422.468125 
z
" style="fill:#9467bd;"/>
   </g>
   <g id="patch_8">
    <path clip-path="url(#p553b33e1c9)" d="M 249.531875 407.368125 
L 382.389018 407.368125 
L 382.389018 392.268125 
L 249.531875 392.268125 
z
" style="fill:#8c564b;"/>
   </g>
   <g id="patch_9">
    <path clip-path="url(#p553b33e1c9)" d="M 249.531875 377.168125 
L 382.389018 377.168125 
L 382.389018 362.068125 
L 249.531875 362.068125 
z
" style="fill:#e377c2;"/>
   </g>
   <g id="patch_10">
    <path clip-path="url(#p553b33e1c9)" d="M 249.531875 346.968125 
L 382.389018 346.968125 
L 382.389018 331.868125 
L 249.531875 331.868125 
z
" style="fill:#7f7f7f;"/>
   </g>
   <g id="patch_11">
    <path clip-path="url(#p553b33e1c9)" d="M 249.531875 316.768125 
L 382.389018 316.768125 
L 382.389018 301.668125 
L 249.531875 301.668125 
z
" style="fill:#bcbd22;"/>
   </g>
   <g id="patch_12">
    <path clip-path="url(#p553b33e1c9)" d="M 249.531875 286.568125 
L 382.389018 286.568125 
L 382.389018 271.468125 
L 249.531875 271.468125 
z
" style="fill:#17becf;"/>
   </g>
   <g id="patch_13">
    <path clip-path="url(#p553b33e1c9)" d="M 249.531875 256.368125 
L 382.389018 256.368125 
L 382.389018 241.268125 
L 249.531875 241.268125 
z
" style="fill:#1f77b4;"/>
   </g>
   <g id="patch_14">
    <path clip-path="url(#p553b33e1c9)" d="M 249.531875 226.168125 
L 408.960446 226.168125 
L 408.960446 211.068125 
L 249.531875 211.068125 
z
" style="fill:#1f77b4;"/>
   </g>
   <g id="patch_15">
    <path clip-path="url(#p553b33e1c9)" d="M 249.531875 195.968125 
L 408.960446 195.968125 
L 408.960446 180.868125 
L 249.531875 180.868125 
z
" style="fill:#ff7f0e;"/>
   </g>
   <g id="patch_16">
    <path clip-path="url(#p553b33e1c9)" d="M 249.531875 165.768125 
L 408.960446 165.768125 
L 408.960446 150.668125 
L 249.531875 150.668125 
z
" style="fill:#2ca02c;"/>
   </g>
   <g id="patch_17">
    <path clip-path="url(#p553b33e1c9)" d="M 249.531875 135.568125 
L 435.531875 135.568125 
L 435.531875 120.468125 
L 249.531875 120.468125 
z
" style="fill:#d62728;"/>
   </g>
   <g id="patch_18">
    <path clip-path="url(#p553b33e1c9)" d="M 249.531875 105.368125 
L 435.531875 105.368125 
L 435.531875 90.268125 
L 249.531875 90.268125 
z
" style="fill:#9467bd;"/>
   </g>
   <g id="patch_19">
    <path clip-path="url(#p553b33e1c9)" d="M 249.531875 75.168125 
L 462.103304 75.168125 
L 462.103304 60.068125 
L 249.531875 60.068125 
z
" style="fill:#8c564b;"/>
   </g>
   <g id="patch_20">
    <path clip-path="url(#p553b33e1c9)" d="M 249.531875 44.968125 
L 780.960446 44.968125 
L 780.960446 29.868125 
L 249.531875 29.868125 
z
" style="fill:#e377c2;"/>
   </g>
   <g id="matplotlib.axis_1">
    <g id="xtick_1">
     <g id="line2d_1">
      <path clip-path="url(#p553b33e1c9)" d="M 249.531875 565.918125 
L 249.531875 22.318125 
" style="fill:none;stroke:#b0b0b0;stroke-linecap:square;stroke-width:0.8;"/>
     </g>
     <g id="line2d_2">
      <defs>
       <path d="M 0 0 
L 0 3.5 
" id="mf302197152" style="stroke:#000000;stroke-width:0.8;"/>
      </defs>
      <g>
       <use style="stroke:#000000;stroke-width:0.8;" x="249.531875" xlink:href="#mf302197152" y="565.918125"/>
      </g>
     </g>
     <g id="text_1">
      <!-- 0 -->
      <defs>
       <path d="M 31.78125 66.40625 
Q 24.171875 66.40625 20.328125 58.90625 
Q 16.5 51.421875 16.5 36.375 
Q 16.5 21.390625 20.328125 13.890625 
Q 24.171875 6.390625 31.78125 6.390625 
Q 39.453125 6.390625 43.28125 13.890625 
Q 47.125 21.390625 47.125 36.375 
Q 47.125 51.421875 43.28125 58.90625 
Q 39.453125 66.40625 31.78125 66.40625 
z
M 31.78125 74.21875 
Q 44.046875 74.21875 50.515625 64.515625 
Q 56.984375 54.828125 56.984375 36.375 
Q 56.984375 17.96875 50.515625 8.265625 
Q 44.046875 -1.421875 31.78125 -1.421875 
Q 19.53125 -1.421875 13.0625 8.265625 
Q 6.59375 17.96875 6.59375 36.375 
Q 6.59375 54.828125 13.0625 64.515625 
Q 19.53125 74.21875 31.78125 74.21875 
z
" id="DejaVuSans-48"/>
      </defs>
      <g transform="translate(245.714375 582.03625)scale(0.12 -0.12)">
       <use xlink:href="#DejaVuSans-48"/>
      </g>
     </g>
    </g>
    <g id="xtick_2">
     <g id="line2d_3">
      <path clip-path="url(#p553b33e1c9)" d="M 315.960446 565.918125 
L 315.960446 22.318125 
" style="fill:none;stroke:#b0b0b0;stroke-linecap:square;stroke-width:0.8;"/>
     </g>
     <g id="line2d_4">
      <g>
       <use style="stroke:#000000;stroke-width:0.8;" x="315.960446" xlink:href="#mf302197152" y="565.918125"/>
      </g>
     </g>
     <g id="text_2">
      <!-- 10 -->
      <defs>
       <path d="M 12.40625 8.296875 
L 28.515625 8.296875 
L 28.515625 63.921875 
L 10.984375 60.40625 
L 10.984375 69.390625 
L 28.421875 72.90625 
L 38.28125 72.90625 
L 38.28125 8.296875 
L 54.390625 8.296875 
L 54.390625 0 
L 12.40625 0 
z
" id="DejaVuSans-49"/>
      </defs>
      <g transform="translate(308.325446 582.03625)scale(0.12 -0.12)">
       <use xlink:href="#DejaVuSans-49"/>
       <use x="63.623047" xlink:href="#DejaVuSans-48"/>
      </g>
     </g>
    </g>
    <g id="xtick_3">
     <g id="line2d_5">
      <path clip-path="url(#p553b33e1c9)" d="M 382.389018 565.918125 
L 382.389018 22.318125 
" style="fill:none;stroke:#b0b0b0;stroke-linecap:square;stroke-width:0.8;"/>
     </g>
     <g id="line2d_6">
      <g>
       <use style="stroke:#000000;stroke-width:0.8;" x="382.389018" xlink:href="#mf302197152" y="565.918125"/>
      </g>
     </g>
     <g id="text_3">
      <!-- 20 -->
      <defs>
       <path d="M 19.1875 8.296875 
L 53.609375 8.296875 
L 53.609375 0 
L 7.328125 0 
L 7.328125 8.296875 
Q 12.9375 14.109375 22.625 23.890625 
Q 32.328125 33.6875 34.8125 36.53125 
Q 39.546875 41.84375 41.421875 45.53125 
Q 43.3125 49.21875 43.3125 52.78125 
Q 43.3125 58.59375 39.234375 62.25 
Q 35.15625 65.921875 28.609375 65.921875 
Q 23.96875 65.921875 18.8125 64.3125 
Q 13.671875 62.703125 7.8125 59.421875 
L 7.8125 69.390625 
Q 13.765625 71.78125 18.9375 73 
Q 24.125 74.21875 28.421875 74.21875 
Q 39.75 74.21875 46.484375 68.546875 
Q 53.21875 62.890625 53.21875 53.421875 
Q 53.21875 48.921875 51.53125 44.890625 
Q 49.859375 40.875 45.40625 35.40625 
Q 44.1875 33.984375 37.640625 27.21875 
Q 31.109375 20.453125 19.1875 8.296875 
z
" id="DejaVuSans-50"/>
      </defs>
      <g transform="translate(374.754018 582.03625)scale(0.12 -0.12)">
       <use xlink:href="#DejaVuSans-50"/>
       <use x="63.623047" xlink:href="#DejaVuSans-48"/>
      </g>
     </g>
    </g>
    <g id="xtick_4">
     <g id="line2d_7">
      <path clip-path="url(#p553b33e1c9)" d="M 448.817589 565.918125 
L 448.817589 22.318125 
" style="fill:none;stroke:#b0b0b0;stroke-linecap:square;stroke-width:0.8;"/>
     </g>
     <g id="line2d_8">
      <g>
       <use style="stroke:#000000;stroke-width:0.8;" x="448.817589" xlink:href="#mf302197152" y="565.918125"/>
      </g>
     </g>
     <g id="text_4">
      <!-- 30 -->
      <defs>
       <path d="M 40.578125 39.3125 
Q 47.65625 37.796875 51.625 33 
Q 55.609375 28.21875 55.609375 21.1875 
Q 55.609375 10.40625 48.1875 4.484375 
Q 40.765625 -1.421875 27.09375 -1.421875 
Q 22.515625 -1.421875 17.65625 -0.515625 
Q 12.796875 0.390625 7.625 2.203125 
L 7.625 11.71875 
Q 11.71875 9.328125 16.59375 8.109375 
Q 21.484375 6.890625 26.8125 6.890625 
Q 36.078125 6.890625 40.9375 10.546875 
Q 45.796875 14.203125 45.796875 21.1875 
Q 45.796875 27.640625 41.28125 31.265625 
Q 36.765625 34.90625 28.71875 34.90625 
L 20.21875 34.90625 
L 20.21875 43.015625 
L 29.109375 43.015625 
Q 36.375 43.015625 40.234375 45.921875 
Q 44.09375 48.828125 44.09375 54.296875 
Q 44.09375 59.90625 40.109375 62.90625 
Q 36.140625 65.921875 28.71875 65.921875 
Q 24.65625 65.921875 20.015625 65.03125 
Q 15.375 64.15625 9.8125 62.3125 
L 9.8125 71.09375 
Q 15.4375 72.65625 20.34375 73.4375 
Q 25.25 74.21875 29.59375 74.21875 
Q 40.828125 74.21875 47.359375 69.109375 
Q 53.90625 64.015625 53.90625 55.328125 
Q 53.90625 49.265625 50.4375 45.09375 
Q 46.96875 40.921875 40.578125 39.3125 
z
" id="DejaVuSans-51"/>
      </defs>
      <g transform="translate(441.182589 582.03625)scale(0.12 -0.12)">
       <use xlink:href="#DejaVuSans-51"/>
       <use x="63.623047" xlink:href="#DejaVuSans-48"/>
      </g>
     </g>
    </g>
    <g id="xtick_5">
     <g id="line2d_9">
      <path clip-path="url(#p553b33e1c9)" d="M 515.246161 565.918125 
L 515.246161 22.318125 
" style="fill:none;stroke:#b0b0b0;stroke-linecap:square;stroke-width:0.8;"/>
     </g>
     <g id="line2d_10">
      <g>
       <use style="stroke:#000000;stroke-width:0.8;" x="515.246161" xlink:href="#mf302197152" y="565.918125"/>
      </g>
     </g>
     <g id="text_5">
      <!-- 40 -->
      <defs>
       <path d="M 37.796875 64.3125 
L 12.890625 25.390625 
L 37.796875 25.390625 
z
M 35.203125 72.90625 
L 47.609375 72.90625 
L 47.609375 25.390625 
L 58.015625 25.390625 
L 58.015625 17.1875 
L 47.609375 17.1875 
L 47.609375 0 
L 37.796875 0 
L 37.796875 17.1875 
L 4.890625 17.1875 
L 4.890625 26.703125 
z
" id="DejaVuSans-52"/>
      </defs>
      <g transform="translate(507.611161 582.03625)scale(0.12 -0.12)">
       <use xlink:href="#DejaVuSans-52"/>
       <use x="63.623047" xlink:href="#DejaVuSans-48"/>
      </g>
     </g>
    </g>
    <g id="xtick_6">
     <g id="line2d_11">
      <path clip-path="url(#p553b33e1c9)" d="M 581.674732 565.918125 
L 581.674732 22.318125 
" style="fill:none;stroke:#b0b0b0;stroke-linecap:square;stroke-width:0.8;"/>
     </g>
     <g id="line2d_12">
      <g>
       <use style="stroke:#000000;stroke-width:0.8;" x="581.674732" xlink:href="#mf302197152" y="565.918125"/>
      </g>
     </g>
     <g id="text_6">
      <!-- 50 -->
      <defs>
       <path d="M 10.796875 72.90625 
L 49.515625 72.90625 
L 49.515625 64.59375 
L 19.828125 64.59375 
L 19.828125 46.734375 
Q 21.96875 47.46875 24.109375 47.828125 
Q 26.265625 48.1875 28.421875 48.1875 
Q 40.625 48.1875 47.75 41.5 
Q 54.890625 34.8125 54.890625 23.390625 
Q 54.890625 11.625 47.5625 5.09375 
Q 40.234375 -1.421875 26.90625 -1.421875 
Q 22.3125 -1.421875 17.546875 -0.640625 
Q 12.796875 0.140625 7.71875 1.703125 
L 7.71875 11.625 
Q 12.109375 9.234375 16.796875 8.0625 
Q 21.484375 6.890625 26.703125 6.890625 
Q 35.15625 6.890625 40.078125 11.328125 
Q 45.015625 15.765625 45.015625 23.390625 
Q 45.015625 31 40.078125 35.4375 
Q 35.15625 39.890625 26.703125 39.890625 
Q 22.75 39.890625 18.8125 39.015625 
Q 14.890625 38.140625 10.796875 36.28125 
z
" id="DejaVuSans-53"/>
      </defs>
      <g transform="translate(574.039732 582.03625)scale(0.12 -0.12)">
       <use xlink:href="#DejaVuSans-53"/>
       <use x="63.623047" xlink:href="#DejaVuSans-48"/>
      </g>
     </g>
    </g>
    <g id="xtick_7">
     <g id="line2d_13">
      <path clip-path="url(#p553b33e1c9)" d="M 648.103304 565.918125 
L 648.103304 22.318125 
" style="fill:none;stroke:#b0b0b0;stroke-linecap:square;stroke-width:0.8;"/>
     </g>
     <g id="line2d_14">
      <g>
       <use style="stroke:#000000;stroke-width:0.8;" x="648.103304" xlink:href="#mf302197152" y="565.918125"/>
      </g>
     </g>
     <g id="text_7">
      <!-- 60 -->
      <defs>
       <path d="M 33.015625 40.375 
Q 26.375 40.375 22.484375 35.828125 
Q 18.609375 31.296875 18.609375 23.390625 
Q 18.609375 15.53125 22.484375 10.953125 
Q 26.375 6.390625 33.015625 6.390625 
Q 39.65625 6.390625 43.53125 10.953125 
Q 47.40625 15.53125 47.40625 23.390625 
Q 47.40625 31.296875 43.53125 35.828125 
Q 39.65625 40.375 33.015625 40.375 
z
M 52.59375 71.296875 
L 52.59375 62.3125 
Q 48.875 64.0625 45.09375 64.984375 
Q 41.3125 65.921875 37.59375 65.921875 
Q 27.828125 65.921875 22.671875 59.328125 
Q 17.53125 52.734375 16.796875 39.40625 
Q 19.671875 43.65625 24.015625 45.921875 
Q 28.375 48.1875 33.59375 48.1875 
Q 44.578125 48.1875 50.953125 41.515625 
Q 57.328125 34.859375 57.328125 23.390625 
Q 57.328125 12.15625 50.6875 5.359375 
Q 44.046875 -1.421875 33.015625 -1.421875 
Q 20.359375 -1.421875 13.671875 8.265625 
Q 6.984375 17.96875 6.984375 36.375 
Q 6.984375 53.65625 15.1875 63.9375 
Q 23.390625 74.21875 37.203125 74.21875 
Q 40.921875 74.21875 44.703125 73.484375 
Q 48.484375 72.75 52.59375 71.296875 
z
" id="DejaVuSans-54"/>
      </defs>
      <g transform="translate(640.468304 582.03625)scale(0.12 -0.12)">
       <use xlink:href="#DejaVuSans-54"/>
       <use x="63.623047" xlink:href="#DejaVuSans-48"/>
      </g>
     </g>
    </g>
    <g id="xtick_8">
     <g id="line2d_15">
      <path clip-path="url(#p553b33e1c9)" d="M 714.531875 565.918125 
L 714.531875 22.318125 
" style="fill:none;stroke:#b0b0b0;stroke-linecap:square;stroke-width:0.8;"/>
     </g>
     <g id="line2d_16">
      <g>
       <use style="stroke:#000000;stroke-width:0.8;" x="714.531875" xlink:href="#mf302197152" y="565.918125"/>
      </g>
     </g>
     <g id="text_8">
      <!-- 70 -->
      <defs>
       <path d="M 8.203125 72.90625 
L 55.078125 72.90625 
L 55.078125 68.703125 
L 28.609375 0 
L 18.3125 0 
L 43.21875 64.59375 
L 8.203125 64.59375 
z
" id="DejaVuSans-55"/>
      </defs>
      <g transform="translate(706.896875 582.03625)scale(0.12 -0.12)">
       <use xlink:href="#DejaVuSans-55"/>
       <use x="63.623047" xlink:href="#DejaVuSans-48"/>
      </g>
     </g>
    </g>
    <g id="xtick_9">
     <g id="line2d_17">
      <path clip-path="url(#p553b33e1c9)" d="M 780.960446 565.918125 
L 780.960446 22.318125 
" style="fill:none;stroke:#b0b0b0;stroke-linecap:square;stroke-width:0.8;"/>
     </g>
     <g id="line2d_18">
      <g>
       <use style="stroke:#000000;stroke-width:0.8;" x="780.960446" xlink:href="#mf302197152" y="565.918125"/>
      </g>
     </g>
     <g id="text_9">
      <!-- 80 -->
      <defs>
       <path d="M 31.78125 34.625 
Q 24.75 34.625 20.71875 30.859375 
Q 16.703125 27.09375 16.703125 20.515625 
Q 16.703125 13.921875 20.71875 10.15625 
Q 24.75 6.390625 31.78125 6.390625 
Q 38.8125 6.390625 42.859375 10.171875 
Q 46.921875 13.96875 46.921875 20.515625 
Q 46.921875 27.09375 42.890625 30.859375 
Q 38.875 34.625 31.78125 34.625 
z
M 21.921875 38.8125 
Q 15.578125 40.375 12.03125 44.71875 
Q 8.5 49.078125 8.5 55.328125 
Q 8.5 64.0625 14.71875 69.140625 
Q 20.953125 74.21875 31.78125 74.21875 
Q 42.671875 74.21875 48.875 69.140625 
Q 55.078125 64.0625 55.078125 55.328125 
Q 55.078125 49.078125 51.53125 44.71875 
Q 48 40.375 41.703125 38.8125 
Q 48.828125 37.15625 52.796875 32.3125 
Q 56.78125 27.484375 56.78125 20.515625 
Q 56.78125 9.90625 50.3125 4.234375 
Q 43.84375 -1.421875 31.78125 -1.421875 
Q 19.734375 -1.421875 13.25 4.234375 
Q 6.78125 9.90625 6.78125 20.515625 
Q 6.78125 27.484375 10.78125 32.3125 
Q 14.796875 37.15625 21.921875 38.8125 
z
M 18.3125 54.390625 
Q 18.3125 48.734375 21.84375 45.5625 
Q 25.390625 42.390625 31.78125 42.390625 
Q 38.140625 42.390625 41.71875 45.5625 
Q 45.3125 48.734375 45.3125 54.390625 
Q 45.3125 60.0625 41.71875 63.234375 
Q 38.140625 66.40625 31.78125 66.40625 
Q 25.390625 66.40625 21.84375 63.234375 
Q 18.3125 60.0625 18.3125 54.390625 
z
" id="DejaVuSans-56"/>
      </defs>
      <g transform="translate(773.325446 582.03625)scale(0.12 -0.12)">
       <use xlink:href="#DejaVuSans-56"/>
       <use x="63.623047" xlink:href="#DejaVuSans-48"/>
      </g>
     </g>
    </g>
    <g id="text_10">
     <!-- Puntaje -->
     <defs>
      <path d="M 19.671875 64.796875 
L 19.671875 37.40625 
L 32.078125 37.40625 
Q 38.96875 37.40625 42.71875 40.96875 
Q 46.484375 44.53125 46.484375 51.125 
Q 46.484375 57.671875 42.71875 61.234375 
Q 38.96875 64.796875 32.078125 64.796875 
z
M 9.8125 72.90625 
L 32.078125 72.90625 
Q 44.34375 72.90625 50.609375 67.359375 
Q 56.890625 61.8125 56.890625 51.125 
Q 56.890625 40.328125 50.609375 34.8125 
Q 44.34375 29.296875 32.078125 29.296875 
L 19.671875 29.296875 
L 19.671875 0 
L 9.8125 0 
z
" id="DejaVuSans-80"/>
      <path d="M 8.5 21.578125 
L 8.5 54.6875 
L 17.484375 54.6875 
L 17.484375 21.921875 
Q 17.484375 14.15625 20.5 10.265625 
Q 23.53125 6.390625 29.59375 6.390625 
Q 36.859375 6.390625 41.078125 11.03125 
Q 45.3125 15.671875 45.3125 23.6875 
L 45.3125 54.6875 
L 54.296875 54.6875 
L 54.296875 0 
L 45.3125 0 
L 45.3125 8.40625 
Q 42.046875 3.421875 37.71875 1 
Q 33.40625 -1.421875 27.6875 -1.421875 
Q 18.265625 -1.421875 13.375 4.4375 
Q 8.5 10.296875 8.5 21.578125 
z
M 31.109375 56 
z
" id="DejaVuSans-117"/>
      <path d="M 54.890625 33.015625 
L 54.890625 0 
L 45.90625 0 
L 45.90625 32.71875 
Q 45.90625 40.484375 42.875 44.328125 
Q 39.84375 48.1875 33.796875 48.1875 
Q 26.515625 48.1875 22.3125 43.546875 
Q 18.109375 38.921875 18.109375 30.90625 
L 18.109375 0 
L 9.078125 0 
L 9.078125 54.6875 
L 18.109375 54.6875 
L 18.109375 46.1875 
Q 21.34375 51.125 25.703125 53.5625 
Q 30.078125 56 35.796875 56 
Q 45.21875 56 50.046875 50.171875 
Q 54.890625 44.34375 54.890625 33.015625 
z
" id="DejaVuSans-110"/>
      <path d="M 18.3125 70.21875 
L 18.3125 54.6875 
L 36.8125 54.6875 
L 36.8125 47.703125 
L 18.3125 47.703125 
L 18.3125 18.015625 
Q 18.3125 11.328125 20.140625 9.421875 
Q 21.96875 7.515625 27.59375 7.515625 
L 36.8125 7.515625 
L 36.8125 0 
L 27.59375 0 
Q 17.1875 0 13.234375 3.875 
Q 9.28125 7.765625 9.28125 18.015625 
L 9.28125 47.703125 
L 2.6875 47.703125 
L 2.6875 54.6875 
L 9.28125 54.6875 
L 9.28125 70.21875 
z
" id="DejaVuSans-116"/>
      <path d="M 34.28125 27.484375 
Q 23.390625 27.484375 19.1875 25 
Q 14.984375 22.515625 14.984375 16.5 
Q 14.984375 11.71875 18.140625 8.90625 
Q 21.296875 6.109375 26.703125 6.109375 
Q 34.1875 6.109375 38.703125 11.40625 
Q 43.21875 16.703125 43.21875 25.484375 
L 43.21875 27.484375 
z
M 52.203125 31.203125 
L 52.203125 0 
L 43.21875 0 
L 43.21875 8.296875 
Q 40.140625 3.328125 35.546875 0.953125 
Q 30.953125 -1.421875 24.3125 -1.421875 
Q 15.921875 -1.421875 10.953125 3.296875 
Q 6 8.015625 6 15.921875 
Q 6 25.140625 12.171875 29.828125 
Q 18.359375 34.515625 30.609375 34.515625 
L 43.21875 34.515625 
L 43.21875 35.40625 
Q 43.21875 41.609375 39.140625 45 
Q 35.0625 48.390625 27.6875 48.390625 
Q 23 48.390625 18.546875 47.265625 
Q 14.109375 46.140625 10.015625 43.890625 
L 10.015625 52.203125 
Q 14.9375 54.109375 19.578125 55.046875 
Q 24.21875 56 28.609375 56 
Q 40.484375 56 46.34375 49.84375 
Q 52.203125 43.703125 52.203125 31.203125 
z
" id="DejaVuSans-97"/>
      <path d="M 9.421875 54.6875 
L 18.40625 54.6875 
L 18.40625 -0.984375 
Q 18.40625 -11.421875 14.421875 -16.109375 
Q 10.453125 -20.796875 1.609375 -20.796875 
L -1.8125 -20.796875 
L -1.8125 -13.1875 
L 0.59375 -13.1875 
Q 5.71875 -13.1875 7.5625 -10.8125 
Q 9.421875 -8.453125 9.421875 -0.984375 
z
M 9.421875 75.984375 
L 18.40625 75.984375 
L 18.40625 64.59375 
L 9.421875 64.59375 
z
" id="DejaVuSans-106"/>
      <path d="M 56.203125 29.59375 
L 56.203125 25.203125 
L 14.890625 25.203125 
Q 15.484375 15.921875 20.484375 11.0625 
Q 25.484375 6.203125 34.421875 6.203125 
Q 39.59375 6.203125 44.453125 7.46875 
Q 49.3125 8.734375 54.109375 11.28125 
L 54.109375 2.78125 
Q 49.265625 0.734375 44.1875 -0.34375 
Q 39.109375 -1.421875 33.890625 -1.421875 
Q 20.796875 -1.421875 13.15625 6.1875 
Q 5.515625 13.8125 5.515625 26.8125 
Q 5.515625 40.234375 12.765625 48.109375 
Q 20.015625 56 32.328125 56 
Q 43.359375 56 49.78125 48.890625 
Q 56.203125 41.796875 56.203125 29.59375 
z
M 47.21875 32.234375 
Q 47.125 39.59375 43.09375 43.984375 
Q 39.0625 48.390625 32.421875 48.390625 
Q 24.90625 48.390625 20.390625 44.140625 
Q 15.875 39.890625 15.1875 32.171875 
z
" id="DejaVuSans-101"/>
     </defs>
     <g transform="translate(509.690469 596.130313)scale(0.1 -0.1)">
      <use xlink:href="#DejaVuSans-80"/>
      <use x="60.287109" xlink:href="#DejaVuSans-117"/>
      <use x="123.666016" xlink:href="#DejaVuSans-110"/>
      <use x="187.044922" xlink:href="#DejaVuSans-116"/>
      <use x="226.253906" xlink:href="#DejaVuSans-97"/>
      <use x="287.533203" xlink:href="#DejaVuSans-106"/>
      <use x="315.316406" xlink:href="#DejaVuSans-101"/>
     </g>
    </g>
   </g>
   <g id="matplotlib.axis_2">
    <g id="ytick_1">
     <g id="line2d_19">
      <path clip-path="url(#p553b33e1c9)" d="M 249.531875 550.818125 
L 807.531875 550.818125 
" style="fill:none;stroke:#b0b0b0;stroke-linecap:square;stroke-width:0.8;"/>
     </g>
     <g id="line2d_20">
      <defs>
       <path d="M 0 0 
L -3.5 0 
" id="m377c2a403b" style="stroke:#000000;stroke-width:0.8;"/>
      </defs>
      <g>
       <use style="stroke:#000000;stroke-width:0.8;" x="249.531875" xlink:href="#m377c2a403b" y="550.818125"/>
      </g>
     </g>
     <g id="text_11">
      <!-- sisinfo.unrc.edu.ar -->
      <defs>
       <path d="M 44.28125 53.078125 
L 44.28125 44.578125 
Q 40.484375 46.53125 36.375 47.5 
Q 32.28125 48.484375 27.875 48.484375 
Q 21.1875 48.484375 17.84375 46.4375 
Q 14.5 44.390625 14.5 40.28125 
Q 14.5 37.15625 16.890625 35.375 
Q 19.28125 33.59375 26.515625 31.984375 
L 29.59375 31.296875 
Q 39.15625 29.25 43.1875 25.515625 
Q 47.21875 21.78125 47.21875 15.09375 
Q 47.21875 7.46875 41.1875 3.015625 
Q 35.15625 -1.421875 24.609375 -1.421875 
Q 20.21875 -1.421875 15.453125 -0.5625 
Q 10.6875 0.296875 5.421875 2 
L 5.421875 11.28125 
Q 10.40625 8.6875 15.234375 7.390625 
Q 20.0625 6.109375 24.8125 6.109375 
Q 31.15625 6.109375 34.5625 8.28125 
Q 37.984375 10.453125 37.984375 14.40625 
Q 37.984375 18.0625 35.515625 20.015625 
Q 33.0625 21.96875 24.703125 23.78125 
L 21.578125 24.515625 
Q 13.234375 26.265625 9.515625 29.90625 
Q 5.8125 33.546875 5.8125 39.890625 
Q 5.8125 47.609375 11.28125 51.796875 
Q 16.75 56 26.8125 56 
Q 31.78125 56 36.171875 55.265625 
Q 40.578125 54.546875 44.28125 53.078125 
z
" id="DejaVuSans-115"/>
       <path d="M 9.421875 54.6875 
L 18.40625 54.6875 
L 18.40625 0 
L 9.421875 0 
z
M 9.421875 75.984375 
L 18.40625 75.984375 
L 18.40625 64.59375 
L 9.421875 64.59375 
z
" id="DejaVuSans-105"/>
       <path d="M 37.109375 75.984375 
L 37.109375 68.5 
L 28.515625 68.5 
Q 23.6875 68.5 21.796875 66.546875 
Q 19.921875 64.59375 19.921875 59.515625 
L 19.921875 54.6875 
L 34.71875 54.6875 
L 34.71875 47.703125 
L 19.921875 47.703125 
L 19.921875 0 
L 10.890625 0 
L 10.890625 47.703125 
L 2.296875 47.703125 
L 2.296875 54.6875 
L 10.890625 54.6875 
L 10.890625 58.5 
Q 10.890625 67.625 15.140625 71.796875 
Q 19.390625 75.984375 28.609375 75.984375 
z
" id="DejaVuSans-102"/>
       <path d="M 30.609375 48.390625 
Q 23.390625 48.390625 19.1875 42.75 
Q 14.984375 37.109375 14.984375 27.296875 
Q 14.984375 17.484375 19.15625 11.84375 
Q 23.34375 6.203125 30.609375 6.203125 
Q 37.796875 6.203125 41.984375 11.859375 
Q 46.1875 17.53125 46.1875 27.296875 
Q 46.1875 37.015625 41.984375 42.703125 
Q 37.796875 48.390625 30.609375 48.390625 
z
M 30.609375 56 
Q 42.328125 56 49.015625 48.375 
Q 55.71875 40.765625 55.71875 27.296875 
Q 55.71875 13.875 49.015625 6.21875 
Q 42.328125 -1.421875 30.609375 -1.421875 
Q 18.84375 -1.421875 12.171875 6.21875 
Q 5.515625 13.875 5.515625 27.296875 
Q 5.515625 40.765625 12.171875 48.375 
Q 18.84375 56 30.609375 56 
z
" id="DejaVuSans-111"/>
       <path d="M 10.6875 12.40625 
L 21 12.40625 
L 21 0 
L 10.6875 0 
z
" id="DejaVuSans-46"/>
       <path d="M 41.109375 46.296875 
Q 39.59375 47.171875 37.8125 47.578125 
Q 36.03125 48 33.890625 48 
Q 26.265625 48 22.1875 43.046875 
Q 18.109375 38.09375 18.109375 28.8125 
L 18.109375 0 
L 9.078125 0 
L 9.078125 54.6875 
L 18.109375 54.6875 
L 18.109375 46.1875 
Q 20.953125 51.171875 25.484375 53.578125 
Q 30.03125 56 36.53125 56 
Q 37.453125 56 38.578125 55.875 
Q 39.703125 55.765625 41.0625 55.515625 
z
" id="DejaVuSans-114"/>
       <path d="M 48.78125 52.59375 
L 48.78125 44.1875 
Q 44.96875 46.296875 41.140625 47.34375 
Q 37.3125 48.390625 33.40625 48.390625 
Q 24.65625 48.390625 19.8125 42.84375 
Q 14.984375 37.3125 14.984375 27.296875 
Q 14.984375 17.28125 19.8125 11.734375 
Q 24.65625 6.203125 33.40625 6.203125 
Q 37.3125 6.203125 41.140625 7.25 
Q 44.96875 8.296875 48.78125 10.40625 
L 48.78125 2.09375 
Q 45.015625 0.34375 40.984375 -0.53125 
Q 36.96875 -1.421875 32.421875 -1.421875 
Q 20.0625 -1.421875 12.78125 6.34375 
Q 5.515625 14.109375 5.515625 27.296875 
Q 5.515625 40.671875 12.859375 48.328125 
Q 20.21875 56 33.015625 56 
Q 37.15625 56 41.109375 55.140625 
Q 45.0625 54.296875 48.78125 52.59375 
z
" id="DejaVuSans-99"/>
       <path d="M 45.40625 46.390625 
L 45.40625 75.984375 
L 54.390625 75.984375 
L 54.390625 0 
L 45.40625 0 
L 45.40625 8.203125 
Q 42.578125 3.328125 38.25 0.953125 
Q 33.9375 -1.421875 27.875 -1.421875 
Q 17.96875 -1.421875 11.734375 6.484375 
Q 5.515625 14.40625 5.515625 27.296875 
Q 5.515625 40.1875 11.734375 48.09375 
Q 17.96875 56 27.875 56 
Q 33.9375 56 38.25 53.625 
Q 42.578125 51.265625 45.40625 46.390625 
z
M 14.796875 27.296875 
Q 14.796875 17.390625 18.875 11.75 
Q 22.953125 6.109375 30.078125 6.109375 
Q 37.203125 6.109375 41.296875 11.75 
Q 45.40625 17.390625 45.40625 27.296875 
Q 45.40625 37.203125 41.296875 42.84375 
Q 37.203125 48.484375 30.078125 48.484375 
Q 22.953125 48.484375 18.875 42.84375 
Q 14.796875 37.203125 14.796875 27.296875 
z
" id="DejaVuSans-100"/>
      </defs>
      <g transform="translate(131.119375 555.377188)scale(0.12 -0.12)">
       <use xlink:href="#DejaVuSans-115"/>
       <use x="52.099609" xlink:href="#DejaVuSans-105"/>
       <use x="79.882812" xlink:href="#DejaVuSans-115"/>
       <use x="131.982422" xlink:href="#DejaVuSans-105"/>
       <use x="159.765625" xlink:href="#DejaVuSans-110"/>
       <use x="223.144531" xlink:href="#DejaVuSans-102"/>
       <use x="258.349609" xlink:href="#DejaVuSans-111"/>
       <use x="319.515625" xlink:href="#DejaVuSans-46"/>
       <use x="351.302734" xlink:href="#DejaVuSans-117"/>
       <use x="414.681641" xlink:href="#DejaVuSans-110"/>
       <use x="478.060547" xlink:href="#DejaVuSans-114"/>
       <use x="519.142578" xlink:href="#DejaVuSans-99"/>
       <use x="574.123047" xlink:href="#DejaVuSans-46"/>
       <use x="605.910156" xlink:href="#DejaVuSans-101"/>
       <use x="667.433594" xlink:href="#DejaVuSans-100"/>
       <use x="730.910156" xlink:href="#DejaVuSans-117"/>
       <use x="794.289062" xlink:href="#DejaVuSans-46"/>
       <use x="826.076172" xlink:href="#DejaVuSans-97"/>
       <use x="887.355469" xlink:href="#DejaVuSans-114"/>
      </g>
     </g>
    </g>
    <g id="ytick_2">
     <g id="line2d_21">
      <path clip-path="url(#p553b33e1c9)" d="M 249.531875 520.618125 
L 807.531875 520.618125 
" style="fill:none;stroke:#b0b0b0;stroke-linecap:square;stroke-width:0.8;"/>
     </g>
     <g id="line2d_22">
      <g>
       <use style="stroke:#000000;stroke-width:0.8;" x="249.531875" xlink:href="#m377c2a403b" y="520.618125"/>
      </g>
     </g>
     <g id="text_12">
      <!-- www.ing.unrc.edu.ar -->
      <defs>
       <path d="M 4.203125 54.6875 
L 13.1875 54.6875 
L 24.421875 12.015625 
L 35.59375 54.6875 
L 46.1875 54.6875 
L 57.421875 12.015625 
L 68.609375 54.6875 
L 77.59375 54.6875 
L 63.28125 0 
L 52.6875 0 
L 40.921875 44.828125 
L 29.109375 0 
L 18.5 0 
z
" id="DejaVuSans-119"/>
       <path d="M 45.40625 27.984375 
Q 45.40625 37.75 41.375 43.109375 
Q 37.359375 48.484375 30.078125 48.484375 
Q 22.859375 48.484375 18.828125 43.109375 
Q 14.796875 37.75 14.796875 27.984375 
Q 14.796875 18.265625 18.828125 12.890625 
Q 22.859375 7.515625 30.078125 7.515625 
Q 37.359375 7.515625 41.375 12.890625 
Q 45.40625 18.265625 45.40625 27.984375 
z
M 54.390625 6.78125 
Q 54.390625 -7.171875 48.1875 -13.984375 
Q 42 -20.796875 29.203125 -20.796875 
Q 24.46875 -20.796875 20.265625 -20.09375 
Q 16.0625 -19.390625 12.109375 -17.921875 
L 12.109375 -9.1875 
Q 16.0625 -11.328125 19.921875 -12.34375 
Q 23.78125 -13.375 27.78125 -13.375 
Q 36.625 -13.375 41.015625 -8.765625 
Q 45.40625 -4.15625 45.40625 5.171875 
L 45.40625 9.625 
Q 42.625 4.78125 38.28125 2.390625 
Q 33.9375 0 27.875 0 
Q 17.828125 0 11.671875 7.65625 
Q 5.515625 15.328125 5.515625 27.984375 
Q 5.515625 40.671875 11.671875 48.328125 
Q 17.828125 56 27.875 56 
Q 33.9375 56 38.28125 53.609375 
Q 42.625 51.21875 45.40625 46.390625 
L 45.40625 54.6875 
L 54.390625 54.6875 
z
" id="DejaVuSans-103"/>
      </defs>
      <g transform="translate(117.664375 525.177188)scale(0.12 -0.12)">
       <use xlink:href="#DejaVuSans-119"/>
       <use x="81.787109" xlink:href="#DejaVuSans-119"/>
       <use x="163.574219" xlink:href="#DejaVuSans-119"/>
       <use x="245.220703" xlink:href="#DejaVuSans-46"/>
       <use x="277.007812" xlink:href="#DejaVuSans-105"/>
       <use x="304.791016" xlink:href="#DejaVuSans-110"/>
       <use x="368.169922" xlink:href="#DejaVuSans-103"/>
       <use x="431.646484" xlink:href="#DejaVuSans-46"/>
       <use x="463.433594" xlink:href="#DejaVuSans-117"/>
       <use x="526.8125" xlink:href="#DejaVuSans-110"/>
       <use x="590.191406" xlink:href="#DejaVuSans-114"/>
       <use x="631.273438" xlink:href="#DejaVuSans-99"/>
       <use x="686.253906" xlink:href="#DejaVuSans-46"/>
       <use x="718.041016" xlink:href="#DejaVuSans-101"/>
       <use x="779.564453" xlink:href="#DejaVuSans-100"/>
       <use x="843.041016" xlink:href="#DejaVuSans-117"/>
       <use x="906.419922" xlink:href="#DejaVuSans-46"/>
       <use x="938.207031" xlink:href="#DejaVuSans-97"/>
       <use x="999.486328" xlink:href="#DejaVuSans-114"/>
      </g>
     </g>
    </g>
    <g id="ytick_3">
     <g id="line2d_23">
      <path clip-path="url(#p553b33e1c9)" d="M 249.531875 490.418125 
L 807.531875 490.418125 
" style="fill:none;stroke:#b0b0b0;stroke-linecap:square;stroke-width:0.8;"/>
     </g>
     <g id="line2d_24">
      <g>
       <use style="stroke:#000000;stroke-width:0.8;" x="249.531875" xlink:href="#m377c2a403b" y="490.418125"/>
      </g>
     </g>
     <g id="text_13">
      <!-- dmat.exa.unrc.edu.ar -->
      <defs>
       <path d="M 52 44.1875 
Q 55.375 50.25 60.0625 53.125 
Q 64.75 56 71.09375 56 
Q 79.640625 56 84.28125 50.015625 
Q 88.921875 44.046875 88.921875 33.015625 
L 88.921875 0 
L 79.890625 0 
L 79.890625 32.71875 
Q 79.890625 40.578125 77.09375 44.375 
Q 74.3125 48.1875 68.609375 48.1875 
Q 61.625 48.1875 57.5625 43.546875 
Q 53.515625 38.921875 53.515625 30.90625 
L 53.515625 0 
L 44.484375 0 
L 44.484375 32.71875 
Q 44.484375 40.625 41.703125 44.40625 
Q 38.921875 48.1875 33.109375 48.1875 
Q 26.21875 48.1875 22.15625 43.53125 
Q 18.109375 38.875 18.109375 30.90625 
L 18.109375 0 
L 9.078125 0 
L 9.078125 54.6875 
L 18.109375 54.6875 
L 18.109375 46.1875 
Q 21.1875 51.21875 25.484375 53.609375 
Q 29.78125 56 35.6875 56 
Q 41.65625 56 45.828125 52.96875 
Q 50 49.953125 52 44.1875 
z
" id="DejaVuSans-109"/>
       <path d="M 54.890625 54.6875 
L 35.109375 28.078125 
L 55.90625 0 
L 45.3125 0 
L 29.390625 21.484375 
L 13.484375 0 
L 2.875 0 
L 24.125 28.609375 
L 4.6875 54.6875 
L 15.28125 54.6875 
L 29.78125 35.203125 
L 44.28125 54.6875 
z
" id="DejaVuSans-120"/>
      </defs>
      <g transform="translate(112.4425 494.977188)scale(0.12 -0.12)">
       <use xlink:href="#DejaVuSans-100"/>
       <use x="63.476562" xlink:href="#DejaVuSans-109"/>
       <use x="160.888672" xlink:href="#DejaVuSans-97"/>
       <use x="222.167969" xlink:href="#DejaVuSans-116"/>
       <use x="261.376953" xlink:href="#DejaVuSans-46"/>
       <use x="293.164062" xlink:href="#DejaVuSans-101"/>
       <use x="354.671875" xlink:href="#DejaVuSans-120"/>
       <use x="413.851562" xlink:href="#DejaVuSans-97"/>
       <use x="475.130859" xlink:href="#DejaVuSans-46"/>
       <use x="506.917969" xlink:href="#DejaVuSans-117"/>
       <use x="570.296875" xlink:href="#DejaVuSans-110"/>
       <use x="633.675781" xlink:href="#DejaVuSans-114"/>
       <use x="674.757812" xlink:href="#DejaVuSans-99"/>
       <use x="729.738281" xlink:href="#DejaVuSans-46"/>
       <use x="761.525391" xlink:href="#DejaVuSans-101"/>
       <use x="823.048828" xlink:href="#DejaVuSans-100"/>
       <use x="886.525391" xlink:href="#DejaVuSans-117"/>
       <use x="949.904297" xlink:href="#DejaVuSans-46"/>
       <use x="981.691406" xlink:href="#DejaVuSans-97"/>
       <use x="1042.970703" xlink:href="#DejaVuSans-114"/>
      </g>
     </g>
    </g>
    <g id="ytick_4">
     <g id="line2d_25">
      <path clip-path="url(#p553b33e1c9)" d="M 249.531875 460.218125 
L 807.531875 460.218125 
" style="fill:none;stroke:#b0b0b0;stroke-linecap:square;stroke-width:0.8;"/>
     </g>
     <g id="line2d_26">
      <g>
       <use style="stroke:#000000;stroke-width:0.8;" x="249.531875" xlink:href="#m377c2a403b" y="460.218125"/>
      </g>
     </g>
     <g id="text_14">
      <!-- www.unrc.edu.ar -->
      <g transform="translate(140.035 464.777188)scale(0.12 -0.12)">
       <use xlink:href="#DejaVuSans-119"/>
       <use x="81.787109" xlink:href="#DejaVuSans-119"/>
       <use x="163.574219" xlink:href="#DejaVuSans-119"/>
       <use x="245.220703" xlink:href="#DejaVuSans-46"/>
       <use x="277.007812" xlink:href="#DejaVuSans-117"/>
       <use x="340.386719" xlink:href="#DejaVuSans-110"/>
       <use x="403.765625" xlink:href="#DejaVuSans-114"/>
       <use x="444.847656" xlink:href="#DejaVuSans-99"/>
       <use x="499.828125" xlink:href="#DejaVuSans-46"/>
       <use x="531.615234" xlink:href="#DejaVuSans-101"/>
       <use x="593.138672" xlink:href="#DejaVuSans-100"/>
       <use x="656.615234" xlink:href="#DejaVuSans-117"/>
       <use x="719.994141" xlink:href="#DejaVuSans-46"/>
       <use x="751.78125" xlink:href="#DejaVuSans-97"/>
       <use x="813.060547" xlink:href="#DejaVuSans-114"/>
      </g>
     </g>
    </g>
    <g id="ytick_5">
     <g id="line2d_27">
      <path clip-path="url(#p553b33e1c9)" d="M 249.531875 430.018125 
L 807.531875 430.018125 
" style="fill:none;stroke:#b0b0b0;stroke-linecap:square;stroke-width:0.8;"/>
     </g>
     <g id="line2d_28">
      <g>
       <use style="stroke:#000000;stroke-width:0.8;" x="249.531875" xlink:href="#m377c2a403b" y="430.018125"/>
      </g>
     </g>
     <g id="text_15">
      <!-- www.siat.unrc.edu.ar -->
      <g transform="translate(114.578125 434.577188)scale(0.12 -0.12)">
       <use xlink:href="#DejaVuSans-119"/>
       <use x="81.787109" xlink:href="#DejaVuSans-119"/>
       <use x="163.574219" xlink:href="#DejaVuSans-119"/>
       <use x="245.220703" xlink:href="#DejaVuSans-46"/>
       <use x="277.007812" xlink:href="#DejaVuSans-115"/>
       <use x="329.107422" xlink:href="#DejaVuSans-105"/>
       <use x="356.890625" xlink:href="#DejaVuSans-97"/>
       <use x="418.169922" xlink:href="#DejaVuSans-116"/>
       <use x="457.378906" xlink:href="#DejaVuSans-46"/>
       <use x="489.166016" xlink:href="#DejaVuSans-117"/>
       <use x="552.544922" xlink:href="#DejaVuSans-110"/>
       <use x="615.923828" xlink:href="#DejaVuSans-114"/>
       <use x="657.005859" xlink:href="#DejaVuSans-99"/>
       <use x="711.986328" xlink:href="#DejaVuSans-46"/>
       <use x="743.773438" xlink:href="#DejaVuSans-101"/>
       <use x="805.296875" xlink:href="#DejaVuSans-100"/>
       <use x="868.773438" xlink:href="#DejaVuSans-117"/>
       <use x="932.152344" xlink:href="#DejaVuSans-46"/>
       <use x="963.939453" xlink:href="#DejaVuSans-97"/>
       <use x="1025.21875" xlink:href="#DejaVuSans-114"/>
      </g>
     </g>
    </g>
    <g id="ytick_6">
     <g id="line2d_29">
      <path clip-path="url(#p553b33e1c9)" d="M 249.531875 399.818125 
L 807.531875 399.818125 
" style="fill:none;stroke:#b0b0b0;stroke-linecap:square;stroke-width:0.8;"/>
     </g>
     <g id="line2d_30">
      <g>
       <use style="stroke:#000000;stroke-width:0.8;" x="249.531875" xlink:href="#m377c2a403b" y="399.818125"/>
      </g>
     </g>
     <g id="text_16">
      <!-- www.irc.unrc.edu.ar -->
      <g transform="translate(121.36 404.377188)scale(0.12 -0.12)">
       <use xlink:href="#DejaVuSans-119"/>
       <use x="81.787109" xlink:href="#DejaVuSans-119"/>
       <use x="163.574219" xlink:href="#DejaVuSans-119"/>
       <use x="245.220703" xlink:href="#DejaVuSans-46"/>
       <use x="277.007812" xlink:href="#DejaVuSans-105"/>
       <use x="304.791016" xlink:href="#DejaVuSans-114"/>
       <use x="345.873047" xlink:href="#DejaVuSans-99"/>
       <use x="400.853516" xlink:href="#DejaVuSans-46"/>
       <use x="432.640625" xlink:href="#DejaVuSans-117"/>
       <use x="496.019531" xlink:href="#DejaVuSans-110"/>
       <use x="559.398438" xlink:href="#DejaVuSans-114"/>
       <use x="600.480469" xlink:href="#DejaVuSans-99"/>
       <use x="655.460938" xlink:href="#DejaVuSans-46"/>
       <use x="687.248047" xlink:href="#DejaVuSans-101"/>
       <use x="748.771484" xlink:href="#DejaVuSans-100"/>
       <use x="812.248047" xlink:href="#DejaVuSans-117"/>
       <use x="875.626953" xlink:href="#DejaVuSans-46"/>
       <use x="907.414062" xlink:href="#DejaVuSans-97"/>
       <use x="968.693359" xlink:href="#DejaVuSans-114"/>
      </g>
     </g>
    </g>
    <g id="ytick_7">
     <g id="line2d_31">
      <path clip-path="url(#p553b33e1c9)" d="M 249.531875 369.618125 
L 807.531875 369.618125 
" style="fill:none;stroke:#b0b0b0;stroke-linecap:square;stroke-width:0.8;"/>
     </g>
     <g id="line2d_32">
      <g>
       <use style="stroke:#000000;stroke-width:0.8;" x="249.531875" xlink:href="#m377c2a403b" y="369.618125"/>
      </g>
     </g>
     <g id="text_17">
      <!-- juanfilloy.bib.unrc.edu.ar -->
      <defs>
       <path d="M 9.421875 75.984375 
L 18.40625 75.984375 
L 18.40625 0 
L 9.421875 0 
z
" id="DejaVuSans-108"/>
       <path d="M 32.171875 -5.078125 
Q 28.375 -14.84375 24.75 -17.8125 
Q 21.140625 -20.796875 15.09375 -20.796875 
L 7.90625 -20.796875 
L 7.90625 -13.28125 
L 13.1875 -13.28125 
Q 16.890625 -13.28125 18.9375 -11.515625 
Q 21 -9.765625 23.484375 -3.21875 
L 25.09375 0.875 
L 2.984375 54.6875 
L 12.5 54.6875 
L 29.59375 11.921875 
L 46.6875 54.6875 
L 56.203125 54.6875 
z
" id="DejaVuSans-121"/>
       <path d="M 48.6875 27.296875 
Q 48.6875 37.203125 44.609375 42.84375 
Q 40.53125 48.484375 33.40625 48.484375 
Q 26.265625 48.484375 22.1875 42.84375 
Q 18.109375 37.203125 18.109375 27.296875 
Q 18.109375 17.390625 22.1875 11.75 
Q 26.265625 6.109375 33.40625 6.109375 
Q 40.53125 6.109375 44.609375 11.75 
Q 48.6875 17.390625 48.6875 27.296875 
z
M 18.109375 46.390625 
Q 20.953125 51.265625 25.265625 53.625 
Q 29.59375 56 35.59375 56 
Q 45.5625 56 51.78125 48.09375 
Q 58.015625 40.1875 58.015625 27.296875 
Q 58.015625 14.40625 51.78125 6.484375 
Q 45.5625 -1.421875 35.59375 -1.421875 
Q 29.59375 -1.421875 25.265625 0.953125 
Q 20.953125 3.328125 18.109375 8.203125 
L 18.109375 0 
L 9.078125 0 
L 9.078125 75.984375 
L 18.109375 75.984375 
z
" id="DejaVuSans-98"/>
      </defs>
      <g transform="translate(92.53375 374.177188)scale(0.12 -0.12)">
       <use xlink:href="#DejaVuSans-106"/>
       <use x="27.783203" xlink:href="#DejaVuSans-117"/>
       <use x="91.162109" xlink:href="#DejaVuSans-97"/>
       <use x="152.441406" xlink:href="#DejaVuSans-110"/>
       <use x="215.820312" xlink:href="#DejaVuSans-102"/>
       <use x="251.025391" xlink:href="#DejaVuSans-105"/>
       <use x="278.808594" xlink:href="#DejaVuSans-108"/>
       <use x="306.591797" xlink:href="#DejaVuSans-108"/>
       <use x="334.375" xlink:href="#DejaVuSans-111"/>
       <use x="395.556641" xlink:href="#DejaVuSans-121"/>
       <use x="454.517578" xlink:href="#DejaVuSans-46"/>
       <use x="486.304688" xlink:href="#DejaVuSans-98"/>
       <use x="549.78125" xlink:href="#DejaVuSans-105"/>
       <use x="577.564453" xlink:href="#DejaVuSans-98"/>
       <use x="641.041016" xlink:href="#DejaVuSans-46"/>
       <use x="672.828125" xlink:href="#DejaVuSans-117"/>
       <use x="736.207031" xlink:href="#DejaVuSans-110"/>
       <use x="799.585938" xlink:href="#DejaVuSans-114"/>
       <use x="840.667969" xlink:href="#DejaVuSans-99"/>
       <use x="895.648438" xlink:href="#DejaVuSans-46"/>
       <use x="927.435547" xlink:href="#DejaVuSans-101"/>
       <use x="988.958984" xlink:href="#DejaVuSans-100"/>
       <use x="1052.435547" xlink:href="#DejaVuSans-117"/>
       <use x="1115.814453" xlink:href="#DejaVuSans-46"/>
       <use x="1147.601562" xlink:href="#DejaVuSans-97"/>
       <use x="1208.880859" xlink:href="#DejaVuSans-114"/>
      </g>
     </g>
    </g>
    <g id="ytick_8">
     <g id="line2d_33">
      <path clip-path="url(#p553b33e1c9)" d="M 249.531875 339.418125 
L 807.531875 339.418125 
" style="fill:none;stroke:#b0b0b0;stroke-linecap:square;stroke-width:0.8;"/>
     </g>
     <g id="line2d_34">
      <g>
       <use style="stroke:#000000;stroke-width:0.8;" x="249.531875" xlink:href="#m377c2a403b" y="339.418125"/>
      </g>
     </g>
     <g id="text_18">
      <!-- www.hum.unrc.edu.ar -->
      <defs>
       <path d="M 54.890625 33.015625 
L 54.890625 0 
L 45.90625 0 
L 45.90625 32.71875 
Q 45.90625 40.484375 42.875 44.328125 
Q 39.84375 48.1875 33.796875 48.1875 
Q 26.515625 48.1875 22.3125 43.546875 
Q 18.109375 38.921875 18.109375 30.90625 
L 18.109375 0 
L 9.078125 0 
L 9.078125 75.984375 
L 18.109375 75.984375 
L 18.109375 46.1875 
Q 21.34375 51.125 25.703125 53.5625 
Q 30.078125 56 35.796875 56 
Q 45.21875 56 50.046875 50.171875 
Q 54.890625 44.34375 54.890625 33.015625 
z
" id="DejaVuSans-104"/>
      </defs>
      <g transform="translate(109.3225 343.977188)scale(0.12 -0.12)">
       <use xlink:href="#DejaVuSans-119"/>
       <use x="81.787109" xlink:href="#DejaVuSans-119"/>
       <use x="163.574219" xlink:href="#DejaVuSans-119"/>
       <use x="245.220703" xlink:href="#DejaVuSans-46"/>
       <use x="277.007812" xlink:href="#DejaVuSans-104"/>
       <use x="340.386719" xlink:href="#DejaVuSans-117"/>
       <use x="403.765625" xlink:href="#DejaVuSans-109"/>
       <use x="501.177734" xlink:href="#DejaVuSans-46"/>
       <use x="532.964844" xlink:href="#DejaVuSans-117"/>
       <use x="596.34375" xlink:href="#DejaVuSans-110"/>
       <use x="659.722656" xlink:href="#DejaVuSans-114"/>
       <use x="700.804688" xlink:href="#DejaVuSans-99"/>
       <use x="755.785156" xlink:href="#DejaVuSans-46"/>
       <use x="787.572266" xlink:href="#DejaVuSans-101"/>
       <use x="849.095703" xlink:href="#DejaVuSans-100"/>
       <use x="912.572266" xlink:href="#DejaVuSans-117"/>
       <use x="975.951172" xlink:href="#DejaVuSans-46"/>
       <use x="1007.738281" xlink:href="#DejaVuSans-97"/>
       <use x="1069.017578" xlink:href="#DejaVuSans-114"/>
      </g>
     </g>
    </g>
    <g id="ytick_9">
     <g id="line2d_35">
      <path clip-path="url(#p553b33e1c9)" d="M 249.531875 309.218125 
L 807.531875 309.218125 
" style="fill:none;stroke:#b0b0b0;stroke-linecap:square;stroke-width:0.8;"/>
     </g>
     <g id="line2d_36">
      <g>
       <use style="stroke:#000000;stroke-width:0.8;" x="249.531875" xlink:href="#m377c2a403b" y="309.218125"/>
      </g>
     </g>
     <g id="text_19">
      <!-- dcn.exa.unrc.edu.ar -->
      <g transform="translate(121.98625 313.777188)scale(0.12 -0.12)">
       <use xlink:href="#DejaVuSans-100"/>
       <use x="63.476562" xlink:href="#DejaVuSans-99"/>
       <use x="118.457031" xlink:href="#DejaVuSans-110"/>
       <use x="181.835938" xlink:href="#DejaVuSans-46"/>
       <use x="213.623047" xlink:href="#DejaVuSans-101"/>
       <use x="275.130859" xlink:href="#DejaVuSans-120"/>
       <use x="334.310547" xlink:href="#DejaVuSans-97"/>
       <use x="395.589844" xlink:href="#DejaVuSans-46"/>
       <use x="427.376953" xlink:href="#DejaVuSans-117"/>
       <use x="490.755859" xlink:href="#DejaVuSans-110"/>
       <use x="554.134766" xlink:href="#DejaVuSans-114"/>
       <use x="595.216797" xlink:href="#DejaVuSans-99"/>
       <use x="650.197266" xlink:href="#DejaVuSans-46"/>
       <use x="681.984375" xlink:href="#DejaVuSans-101"/>
       <use x="743.507812" xlink:href="#DejaVuSans-100"/>
       <use x="806.984375" xlink:href="#DejaVuSans-117"/>
       <use x="870.363281" xlink:href="#DejaVuSans-46"/>
       <use x="902.150391" xlink:href="#DejaVuSans-97"/>
       <use x="963.429688" xlink:href="#DejaVuSans-114"/>
      </g>
     </g>
    </g>
    <g id="ytick_10">
     <g id="line2d_37">
      <path clip-path="url(#p553b33e1c9)" d="M 249.531875 279.018125 
L 807.531875 279.018125 
" style="fill:none;stroke:#b0b0b0;stroke-linecap:square;stroke-width:0.8;"/>
     </g>
     <g id="line2d_38">
      <g>
       <use style="stroke:#000000;stroke-width:0.8;" x="249.531875" xlink:href="#m377c2a403b" y="279.018125"/>
      </g>
     </g>
     <g id="text_20">
      <!-- www.exa.unrc.edu.ar -->
      <g transform="translate(114.383125 283.577188)scale(0.12 -0.12)">
       <use xlink:href="#DejaVuSans-119"/>
       <use x="81.787109" xlink:href="#DejaVuSans-119"/>
       <use x="163.574219" xlink:href="#DejaVuSans-119"/>
       <use x="245.220703" xlink:href="#DejaVuSans-46"/>
       <use x="277.007812" xlink:href="#DejaVuSans-101"/>
       <use x="338.515625" xlink:href="#DejaVuSans-120"/>
       <use x="397.695312" xlink:href="#DejaVuSans-97"/>
       <use x="458.974609" xlink:href="#DejaVuSans-46"/>
       <use x="490.761719" xlink:href="#DejaVuSans-117"/>
       <use x="554.140625" xlink:href="#DejaVuSans-110"/>
       <use x="617.519531" xlink:href="#DejaVuSans-114"/>
       <use x="658.601562" xlink:href="#DejaVuSans-99"/>
       <use x="713.582031" xlink:href="#DejaVuSans-46"/>
       <use x="745.369141" xlink:href="#DejaVuSans-101"/>
       <use x="806.892578" xlink:href="#DejaVuSans-100"/>
       <use x="870.369141" xlink:href="#DejaVuSans-117"/>
       <use x="933.748047" xlink:href="#DejaVuSans-46"/>
       <use x="965.535156" xlink:href="#DejaVuSans-97"/>
       <use x="1026.814453" xlink:href="#DejaVuSans-114"/>
      </g>
     </g>
    </g>
    <g id="ytick_11">
     <g id="line2d_39">
      <path clip-path="url(#p553b33e1c9)" d="M 249.531875 248.818125 
L 807.531875 248.818125 
" style="fill:none;stroke:#b0b0b0;stroke-linecap:square;stroke-width:0.8;"/>
     </g>
     <g id="line2d_40">
      <g>
       <use style="stroke:#000000;stroke-width:0.8;" x="249.531875" xlink:href="#m377c2a403b" y="248.818125"/>
      </g>
     </g>
     <g id="text_21">
      <!-- dmi.exa.unrc.edu.ar -->
      <g transform="translate(121.166875 253.377188)scale(0.12 -0.12)">
       <use xlink:href="#DejaVuSans-100"/>
       <use x="63.476562" xlink:href="#DejaVuSans-109"/>
       <use x="160.888672" xlink:href="#DejaVuSans-105"/>
       <use x="188.671875" xlink:href="#DejaVuSans-46"/>
       <use x="220.458984" xlink:href="#DejaVuSans-101"/>
       <use x="281.966797" xlink:href="#DejaVuSans-120"/>
       <use x="341.146484" xlink:href="#DejaVuSans-97"/>
       <use x="402.425781" xlink:href="#DejaVuSans-46"/>
       <use x="434.212891" xlink:href="#DejaVuSans-117"/>
       <use x="497.591797" xlink:href="#DejaVuSans-110"/>
       <use x="560.970703" xlink:href="#DejaVuSans-114"/>
       <use x="602.052734" xlink:href="#DejaVuSans-99"/>
       <use x="657.033203" xlink:href="#DejaVuSans-46"/>
       <use x="688.820312" xlink:href="#DejaVuSans-101"/>
       <use x="750.34375" xlink:href="#DejaVuSans-100"/>
       <use x="813.820312" xlink:href="#DejaVuSans-117"/>
       <use x="877.199219" xlink:href="#DejaVuSans-46"/>
       <use x="908.986328" xlink:href="#DejaVuSans-97"/>
       <use x="970.265625" xlink:href="#DejaVuSans-114"/>
      </g>
     </g>
    </g>
    <g id="ytick_12">
     <g id="line2d_41">
      <path clip-path="url(#p553b33e1c9)" d="M 249.531875 218.618125 
L 807.531875 218.618125 
" style="fill:none;stroke:#b0b0b0;stroke-linecap:square;stroke-width:0.8;"/>
     </g>
     <g id="line2d_42">
      <g>
       <use style="stroke:#000000;stroke-width:0.8;" x="249.531875" xlink:href="#m377c2a403b" y="218.618125"/>
      </g>
     </g>
     <g id="text_22">
      <!-- neutron.exa.unrc.edu.ar -->
      <g transform="translate(96.6325 223.177188)scale(0.12 -0.12)">
       <use xlink:href="#DejaVuSans-110"/>
       <use x="63.378906" xlink:href="#DejaVuSans-101"/>
       <use x="124.902344" xlink:href="#DejaVuSans-117"/>
       <use x="188.28125" xlink:href="#DejaVuSans-116"/>
       <use x="227.490234" xlink:href="#DejaVuSans-114"/>
       <use x="268.572266" xlink:href="#DejaVuSans-111"/>
       <use x="329.753906" xlink:href="#DejaVuSans-110"/>
       <use x="393.132812" xlink:href="#DejaVuSans-46"/>
       <use x="424.919922" xlink:href="#DejaVuSans-101"/>
       <use x="486.427734" xlink:href="#DejaVuSans-120"/>
       <use x="545.607422" xlink:href="#DejaVuSans-97"/>
       <use x="606.886719" xlink:href="#DejaVuSans-46"/>
       <use x="638.673828" xlink:href="#DejaVuSans-117"/>
       <use x="702.052734" xlink:href="#DejaVuSans-110"/>
       <use x="765.431641" xlink:href="#DejaVuSans-114"/>
       <use x="806.513672" xlink:href="#DejaVuSans-99"/>
       <use x="861.494141" xlink:href="#DejaVuSans-46"/>
       <use x="893.28125" xlink:href="#DejaVuSans-101"/>
       <use x="954.804688" xlink:href="#DejaVuSans-100"/>
       <use x="1018.28125" xlink:href="#DejaVuSans-117"/>
       <use x="1081.660156" xlink:href="#DejaVuSans-46"/>
       <use x="1113.447266" xlink:href="#DejaVuSans-97"/>
       <use x="1174.726562" xlink:href="#DejaVuSans-114"/>
      </g>
     </g>
    </g>
    <g id="ytick_13">
     <g id="line2d_43">
      <path clip-path="url(#p553b33e1c9)" d="M 249.531875 188.418125 
L 807.531875 188.418125 
" style="fill:none;stroke:#b0b0b0;stroke-linecap:square;stroke-width:0.8;"/>
     </g>
     <g id="line2d_44">
      <g>
       <use style="stroke:#000000;stroke-width:0.8;" x="249.531875" xlink:href="#m377c2a403b" y="188.418125"/>
      </g>
     </g>
     <g id="text_23">
      <!-- dq.exa.unrc.edu.ar -->
      <defs>
       <path d="M 14.796875 27.296875 
Q 14.796875 17.390625 18.875 11.75 
Q 22.953125 6.109375 30.078125 6.109375 
Q 37.203125 6.109375 41.296875 11.75 
Q 45.40625 17.390625 45.40625 27.296875 
Q 45.40625 37.203125 41.296875 42.84375 
Q 37.203125 48.484375 30.078125 48.484375 
Q 22.953125 48.484375 18.875 42.84375 
Q 14.796875 37.203125 14.796875 27.296875 
z
M 45.40625 8.203125 
Q 42.578125 3.328125 38.25 0.953125 
Q 33.9375 -1.421875 27.875 -1.421875 
Q 17.96875 -1.421875 11.734375 6.484375 
Q 5.515625 14.40625 5.515625 27.296875 
Q 5.515625 40.1875 11.734375 48.09375 
Q 17.96875 56 27.875 56 
Q 33.9375 56 38.25 53.625 
Q 42.578125 51.265625 45.40625 46.390625 
L 45.40625 54.6875 
L 54.390625 54.6875 
L 54.390625 -20.796875 
L 45.40625 -20.796875 
z
" id="DejaVuSans-113"/>
      </defs>
      <g transform="translate(128.57125 192.977188)scale(0.12 -0.12)">
       <use xlink:href="#DejaVuSans-100"/>
       <use x="63.476562" xlink:href="#DejaVuSans-113"/>
       <use x="126.953125" xlink:href="#DejaVuSans-46"/>
       <use x="158.740234" xlink:href="#DejaVuSans-101"/>
       <use x="220.248047" xlink:href="#DejaVuSans-120"/>
       <use x="279.427734" xlink:href="#DejaVuSans-97"/>
       <use x="340.707031" xlink:href="#DejaVuSans-46"/>
       <use x="372.494141" xlink:href="#DejaVuSans-117"/>
       <use x="435.873047" xlink:href="#DejaVuSans-110"/>
       <use x="499.251953" xlink:href="#DejaVuSans-114"/>
       <use x="540.333984" xlink:href="#DejaVuSans-99"/>
       <use x="595.314453" xlink:href="#DejaVuSans-46"/>
       <use x="627.101562" xlink:href="#DejaVuSans-101"/>
       <use x="688.625" xlink:href="#DejaVuSans-100"/>
       <use x="752.101562" xlink:href="#DejaVuSans-117"/>
       <use x="815.480469" xlink:href="#DejaVuSans-46"/>
       <use x="847.267578" xlink:href="#DejaVuSans-97"/>
       <use x="908.546875" xlink:href="#DejaVuSans-114"/>
      </g>
     </g>
    </g>
    <g id="ytick_14">
     <g id="line2d_45">
      <path clip-path="url(#p553b33e1c9)" d="M 249.531875 158.218125 
L 807.531875 158.218125 
" style="fill:none;stroke:#b0b0b0;stroke-linecap:square;stroke-width:0.8;"/>
     </g>
     <g id="line2d_46">
      <g>
       <use style="stroke:#000000;stroke-width:0.8;" x="249.531875" xlink:href="#m377c2a403b" y="158.218125"/>
      </g>
     </g>
     <g id="text_24">
      <!-- www.fce.unrc.edu.ar -->
      <g transform="translate(118.015 162.777188)scale(0.12 -0.12)">
       <use xlink:href="#DejaVuSans-119"/>
       <use x="81.787109" xlink:href="#DejaVuSans-119"/>
       <use x="163.574219" xlink:href="#DejaVuSans-119"/>
       <use x="245.220703" xlink:href="#DejaVuSans-46"/>
       <use x="277.007812" xlink:href="#DejaVuSans-102"/>
       <use x="312.212891" xlink:href="#DejaVuSans-99"/>
       <use x="367.193359" xlink:href="#DejaVuSans-101"/>
       <use x="428.716797" xlink:href="#DejaVuSans-46"/>
       <use x="460.503906" xlink:href="#DejaVuSans-117"/>
       <use x="523.882812" xlink:href="#DejaVuSans-110"/>
       <use x="587.261719" xlink:href="#DejaVuSans-114"/>
       <use x="628.34375" xlink:href="#DejaVuSans-99"/>
       <use x="683.324219" xlink:href="#DejaVuSans-46"/>
       <use x="715.111328" xlink:href="#DejaVuSans-101"/>
       <use x="776.634766" xlink:href="#DejaVuSans-100"/>
       <use x="840.111328" xlink:href="#DejaVuSans-117"/>
       <use x="903.490234" xlink:href="#DejaVuSans-46"/>
       <use x="935.277344" xlink:href="#DejaVuSans-97"/>
       <use x="996.556641" xlink:href="#DejaVuSans-114"/>
      </g>
     </g>
    </g>
    <g id="ytick_15">
     <g id="line2d_47">
      <path clip-path="url(#p553b33e1c9)" d="M 249.531875 128.018125 
L 807.531875 128.018125 
" style="fill:none;stroke:#b0b0b0;stroke-linecap:square;stroke-width:0.8;"/>
     </g>
     <g id="line2d_48">
      <g>
       <use style="stroke:#000000;stroke-width:0.8;" x="249.531875" xlink:href="#m377c2a403b" y="128.018125"/>
      </g>
     </g>
     <g id="text_25">
      <!-- cepeiper.unrc.edu.ar -->
      <defs>
       <path d="M 18.109375 8.203125 
L 18.109375 -20.796875 
L 9.078125 -20.796875 
L 9.078125 54.6875 
L 18.109375 54.6875 
L 18.109375 46.390625 
Q 20.953125 51.265625 25.265625 53.625 
Q 29.59375 56 35.59375 56 
Q 45.5625 56 51.78125 48.09375 
Q 58.015625 40.1875 58.015625 27.296875 
Q 58.015625 14.40625 51.78125 6.484375 
Q 45.5625 -1.421875 35.59375 -1.421875 
Q 29.59375 -1.421875 25.265625 0.953125 
Q 20.953125 3.328125 18.109375 8.203125 
z
M 48.6875 27.296875 
Q 48.6875 37.203125 44.609375 42.84375 
Q 40.53125 48.484375 33.40625 48.484375 
Q 26.265625 48.484375 22.1875 42.84375 
Q 18.109375 37.203125 18.109375 27.296875 
Q 18.109375 17.390625 22.1875 11.75 
Q 26.265625 6.109375 33.40625 6.109375 
Q 40.53125 6.109375 44.609375 11.75 
Q 48.6875 17.390625 48.6875 27.296875 
z
" id="DejaVuSans-112"/>
      </defs>
      <g transform="translate(117.22375 132.577188)scale(0.12 -0.12)">
       <use xlink:href="#DejaVuSans-99"/>
       <use x="54.980469" xlink:href="#DejaVuSans-101"/>
       <use x="116.503906" xlink:href="#DejaVuSans-112"/>
       <use x="179.980469" xlink:href="#DejaVuSans-101"/>
       <use x="241.503906" xlink:href="#DejaVuSans-105"/>
       <use x="269.287109" xlink:href="#DejaVuSans-112"/>
       <use x="332.763672" xlink:href="#DejaVuSans-101"/>
       <use x="394.287109" xlink:href="#DejaVuSans-114"/>
       <use x="435.259766" xlink:href="#DejaVuSans-46"/>
       <use x="467.046875" xlink:href="#DejaVuSans-117"/>
       <use x="530.425781" xlink:href="#DejaVuSans-110"/>
       <use x="593.804688" xlink:href="#DejaVuSans-114"/>
       <use x="634.886719" xlink:href="#DejaVuSans-99"/>
       <use x="689.867188" xlink:href="#DejaVuSans-46"/>
       <use x="721.654297" xlink:href="#DejaVuSans-101"/>
       <use x="783.177734" xlink:href="#DejaVuSans-100"/>
       <use x="846.654297" xlink:href="#DejaVuSans-117"/>
       <use x="910.033203" xlink:href="#DejaVuSans-46"/>
       <use x="941.820312" xlink:href="#DejaVuSans-97"/>
       <use x="1003.099609" xlink:href="#DejaVuSans-114"/>
      </g>
     </g>
    </g>
    <g id="ytick_16">
     <g id="line2d_49">
      <path clip-path="url(#p553b33e1c9)" d="M 249.531875 97.818125 
L 807.531875 97.818125 
" style="fill:none;stroke:#b0b0b0;stroke-linecap:square;stroke-width:0.8;"/>
     </g>
     <g id="line2d_50">
      <g>
       <use style="stroke:#000000;stroke-width:0.8;" x="249.531875" xlink:href="#m377c2a403b" y="97.818125"/>
      </g>
     </g>
     <g id="text_26">
      <!-- www.edutec.unrc.edu.ar -->
      <g transform="translate(94.928125 102.377188)scale(0.12 -0.12)">
       <use xlink:href="#DejaVuSans-119"/>
       <use x="81.787109" xlink:href="#DejaVuSans-119"/>
       <use x="163.574219" xlink:href="#DejaVuSans-119"/>
       <use x="245.220703" xlink:href="#DejaVuSans-46"/>
       <use x="277.007812" xlink:href="#DejaVuSans-101"/>
       <use x="338.53125" xlink:href="#DejaVuSans-100"/>
       <use x="402.007812" xlink:href="#DejaVuSans-117"/>
       <use x="465.386719" xlink:href="#DejaVuSans-116"/>
       <use x="504.595703" xlink:href="#DejaVuSans-101"/>
       <use x="566.119141" xlink:href="#DejaVuSans-99"/>
       <use x="621.099609" xlink:href="#DejaVuSans-46"/>
       <use x="652.886719" xlink:href="#DejaVuSans-117"/>
       <use x="716.265625" xlink:href="#DejaVuSans-110"/>
       <use x="779.644531" xlink:href="#DejaVuSans-114"/>
       <use x="820.726562" xlink:href="#DejaVuSans-99"/>
       <use x="875.707031" xlink:href="#DejaVuSans-46"/>
       <use x="907.494141" xlink:href="#DejaVuSans-101"/>
       <use x="969.017578" xlink:href="#DejaVuSans-100"/>
       <use x="1032.494141" xlink:href="#DejaVuSans-117"/>
       <use x="1095.873047" xlink:href="#DejaVuSans-46"/>
       <use x="1127.660156" xlink:href="#DejaVuSans-97"/>
       <use x="1188.939453" xlink:href="#DejaVuSans-114"/>
      </g>
     </g>
    </g>
    <g id="ytick_17">
     <g id="line2d_51">
      <path clip-path="url(#p553b33e1c9)" d="M 249.531875 67.618125 
L 807.531875 67.618125 
" style="fill:none;stroke:#b0b0b0;stroke-linecap:square;stroke-width:0.8;"/>
     </g>
     <g id="line2d_52">
      <g>
       <use style="stroke:#000000;stroke-width:0.8;" x="249.531875" xlink:href="#m377c2a403b" y="67.618125"/>
      </g>
     </g>
     <g id="text_27">
      <!-- app2.eco.unrc.edu.ar -->
      <g transform="translate(114.098125 72.177188)scale(0.12 -0.12)">
       <use xlink:href="#DejaVuSans-97"/>
       <use x="61.279297" xlink:href="#DejaVuSans-112"/>
       <use x="124.755859" xlink:href="#DejaVuSans-112"/>
       <use x="188.232422" xlink:href="#DejaVuSans-50"/>
       <use x="251.855469" xlink:href="#DejaVuSans-46"/>
       <use x="283.642578" xlink:href="#DejaVuSans-101"/>
       <use x="345.166016" xlink:href="#DejaVuSans-99"/>
       <use x="400.146484" xlink:href="#DejaVuSans-111"/>
       <use x="461.3125" xlink:href="#DejaVuSans-46"/>
       <use x="493.099609" xlink:href="#DejaVuSans-117"/>
       <use x="556.478516" xlink:href="#DejaVuSans-110"/>
       <use x="619.857422" xlink:href="#DejaVuSans-114"/>
       <use x="660.939453" xlink:href="#DejaVuSans-99"/>
       <use x="715.919922" xlink:href="#DejaVuSans-46"/>
       <use x="747.707031" xlink:href="#DejaVuSans-101"/>
       <use x="809.230469" xlink:href="#DejaVuSans-100"/>
       <use x="872.707031" xlink:href="#DejaVuSans-117"/>
       <use x="936.085938" xlink:href="#DejaVuSans-46"/>
       <use x="967.873047" xlink:href="#DejaVuSans-97"/>
       <use x="1029.152344" xlink:href="#DejaVuSans-114"/>
      </g>
     </g>
    </g>
    <g id="ytick_18">
     <g id="line2d_53">
      <path clip-path="url(#p553b33e1c9)" d="M 249.531875 37.418125 
L 807.531875 37.418125 
" style="fill:none;stroke:#b0b0b0;stroke-linecap:square;stroke-width:0.8;"/>
     </g>
     <g id="line2d_54">
      <g>
       <use style="stroke:#000000;stroke-width:0.8;" x="249.531875" xlink:href="#m377c2a403b" y="37.418125"/>
      </g>
     </g>
     <g id="text_28">
      <!-- Mnimo exigido por Ley en Argentina -->
      <defs>
       <path d="M 9.8125 72.90625 
L 24.515625 72.90625 
L 43.109375 23.296875 
L 61.8125 72.90625 
L 76.515625 72.90625 
L 76.515625 0 
L 66.890625 0 
L 66.890625 64.015625 
L 48.09375 14.015625 
L 38.1875 14.015625 
L 19.390625 64.015625 
L 19.390625 0 
L 9.8125 0 
z
" id="DejaVuSans-77"/>
       <path d="M 20.703125 79.984375 
L 30.421875 79.984375 
L 14.5 61.625 
L 7.03125 61.625 
z
M 9.421875 54.6875 
L 18.40625 54.6875 
L 18.40625 0 
L 9.421875 0 
z
M 13.921875 56 
z
" id="DejaVuSans-237"/>
       <path id="DejaVuSans-32"/>
       <path d="M 9.8125 72.90625 
L 19.671875 72.90625 
L 19.671875 8.296875 
L 55.171875 8.296875 
L 55.171875 0 
L 9.8125 0 
z
" id="DejaVuSans-76"/>
       <path d="M 34.1875 63.1875 
L 20.796875 26.90625 
L 47.609375 26.90625 
z
M 28.609375 72.90625 
L 39.796875 72.90625 
L 67.578125 0 
L 57.328125 0 
L 50.6875 18.703125 
L 17.828125 18.703125 
L 11.1875 0 
L 0.78125 0 
z
" id="DejaVuSans-65"/>
      </defs>
      <g transform="translate(21.278125 42.217188)scale(0.12 -0.12)">
       <use xlink:href="#DejaVuSans-77"/>
       <use x="86.279297" xlink:href="#DejaVuSans-237"/>
       <use x="114.0625" xlink:href="#DejaVuSans-110"/>
       <use x="177.441406" xlink:href="#DejaVuSans-105"/>
       <use x="205.224609" xlink:href="#DejaVuSans-109"/>
       <use x="302.636719" xlink:href="#DejaVuSans-111"/>
       <use x="363.818359" xlink:href="#DejaVuSans-32"/>
       <use x="395.605469" xlink:href="#DejaVuSans-101"/>
       <use x="457.113281" xlink:href="#DejaVuSans-120"/>
       <use x="516.292969" xlink:href="#DejaVuSans-105"/>
       <use x="544.076172" xlink:href="#DejaVuSans-103"/>
       <use x="607.552734" xlink:href="#DejaVuSans-105"/>
       <use x="635.335938" xlink:href="#DejaVuSans-100"/>
       <use x="698.8125" xlink:href="#DejaVuSans-111"/>
       <use x="759.994141" xlink:href="#DejaVuSans-32"/>
       <use x="791.78125" xlink:href="#DejaVuSans-112"/>
       <use x="855.257812" xlink:href="#DejaVuSans-111"/>
       <use x="916.439453" xlink:href="#DejaVuSans-114"/>
       <use x="957.552734" xlink:href="#DejaVuSans-32"/>
       <use x="989.339844" xlink:href="#DejaVuSans-76"/>
       <use x="1045.037109" xlink:href="#DejaVuSans-101"/>
       <use x="1106.560547" xlink:href="#DejaVuSans-121"/>
       <use x="1165.740234" xlink:href="#DejaVuSans-32"/>
       <use x="1197.527344" xlink:href="#DejaVuSans-101"/>
       <use x="1259.050781" xlink:href="#DejaVuSans-110"/>
       <use x="1322.429688" xlink:href="#DejaVuSans-32"/>
       <use x="1354.216797" xlink:href="#DejaVuSans-65"/>
       <use x="1422.625" xlink:href="#DejaVuSans-114"/>
       <use x="1463.722656" xlink:href="#DejaVuSans-103"/>
       <use x="1527.199219" xlink:href="#DejaVuSans-101"/>
       <use x="1588.722656" xlink:href="#DejaVuSans-110"/>
       <use x="1652.101562" xlink:href="#DejaVuSans-116"/>
       <use x="1691.310547" xlink:href="#DejaVuSans-105"/>
       <use x="1719.09375" xlink:href="#DejaVuSans-110"/>
       <use x="1782.472656" xlink:href="#DejaVuSans-97"/>
      </g>
     </g>
    </g>
    <g id="text_29">
     <!-- Pgina web -->
     <defs>
      <path d="M 34.28125 27.484375 
Q 23.390625 27.484375 19.1875 25 
Q 14.984375 22.515625 14.984375 16.5 
Q 14.984375 11.71875 18.140625 8.90625 
Q 21.296875 6.109375 26.703125 6.109375 
Q 34.1875 6.109375 38.703125 11.40625 
Q 43.21875 16.703125 43.21875 25.484375 
L 43.21875 27.484375 
z
M 52.203125 31.203125 
L 52.203125 0 
L 43.21875 0 
L 43.21875 8.296875 
Q 40.140625 3.328125 35.546875 0.953125 
Q 30.953125 -1.421875 24.3125 -1.421875 
Q 15.921875 -1.421875 10.953125 3.296875 
Q 6 8.015625 6 15.921875 
Q 6 25.140625 12.171875 29.828125 
Q 18.359375 34.515625 30.609375 34.515625 
L 43.21875 34.515625 
L 43.21875 35.40625 
Q 43.21875 41.609375 39.140625 45 
Q 35.0625 48.390625 27.6875 48.390625 
Q 23 48.390625 18.546875 47.265625 
Q 14.109375 46.140625 10.015625 43.890625 
L 10.015625 52.203125 
Q 14.9375 54.109375 19.578125 55.046875 
Q 24.21875 56 28.609375 56 
Q 40.484375 56 46.34375 49.84375 
Q 52.203125 43.703125 52.203125 31.203125 
z
M 35.796875 79.984375 
L 45.515625 79.984375 
L 29.59375 61.625 
L 22.125 61.625 
z
" id="DejaVuSans-225"/>
     </defs>
     <g transform="translate(15.198437 322.918906)rotate(-90)scale(0.1 -0.1)">
      <use xlink:href="#DejaVuSans-80"/>
      <use x="60.240234" xlink:href="#DejaVuSans-225"/>
      <use x="121.519531" xlink:href="#DejaVuSans-103"/>
      <use x="184.996094" xlink:href="#DejaVuSans-105"/>
      <use x="212.779297" xlink:href="#DejaVuSans-110"/>
      <use x="276.158203" xlink:href="#DejaVuSans-97"/>
      <use x="337.4375" xlink:href="#DejaVuSans-32"/>
      <use x="369.224609" xlink:href="#DejaVuSans-119"/>
      <use x="451.011719" xlink:href="#DejaVuSans-101"/>
      <use x="512.535156" xlink:href="#DejaVuSans-98"/>
     </g>
    </g>
   </g>
   <g id="patch_21">
    <path d="M 249.531875 565.918125 
L 249.531875 22.318125 
" style="fill:none;stroke:#000000;stroke-linecap:square;stroke-linejoin:miter;stroke-width:0.8;"/>
   </g>
   <g id="patch_22">
    <path d="M 807.531875 565.918125 
L 807.531875 22.318125 
" style="fill:none;stroke:#000000;stroke-linecap:square;stroke-linejoin:miter;stroke-width:0.8;"/>
   </g>
   <g id="patch_23">
    <path d="M 249.531875 565.918125 
L 807.531875 565.918125 
" style="fill:none;stroke:#000000;stroke-linecap:square;stroke-linejoin:miter;stroke-width:0.8;"/>
   </g>
   <g id="patch_24">
    <path d="M 249.531875 22.318125 
L 807.531875 22.318125 
" style="fill:none;stroke:#000000;stroke-linecap:square;stroke-linejoin:miter;stroke-width:0.8;"/>
   </g>
   <g id="text_30">
    <!-- Ranking de Accesibilidad Web en la UNRC -->
    <defs>
     <path d="M 44.390625 34.1875 
Q 47.5625 33.109375 50.5625 29.59375 
Q 53.5625 26.078125 56.59375 19.921875 
L 66.609375 0 
L 56 0 
L 46.6875 18.703125 
Q 43.0625 26.03125 39.671875 28.421875 
Q 36.28125 30.8125 30.421875 30.8125 
L 19.671875 30.8125 
L 19.671875 0 
L 9.8125 0 
L 9.8125 72.90625 
L 32.078125 72.90625 
Q 44.578125 72.90625 50.734375 67.671875 
Q 56.890625 62.453125 56.890625 51.90625 
Q 56.890625 45.015625 53.6875 40.46875 
Q 50.484375 35.9375 44.390625 34.1875 
z
M 19.671875 64.796875 
L 19.671875 38.921875 
L 32.078125 38.921875 
Q 39.203125 38.921875 42.84375 42.21875 
Q 46.484375 45.515625 46.484375 51.90625 
Q 46.484375 58.296875 42.84375 61.546875 
Q 39.203125 64.796875 32.078125 64.796875 
z
" id="DejaVuSans-82"/>
     <path d="M 9.078125 75.984375 
L 18.109375 75.984375 
L 18.109375 31.109375 
L 44.921875 54.6875 
L 56.390625 54.6875 
L 27.390625 29.109375 
L 57.625 0 
L 45.90625 0 
L 18.109375 26.703125 
L 18.109375 0 
L 9.078125 0 
z
" id="DejaVuSans-107"/>
     <path d="M 3.328125 72.90625 
L 13.28125 72.90625 
L 28.609375 11.28125 
L 43.890625 72.90625 
L 54.984375 72.90625 
L 70.3125 11.28125 
L 85.59375 72.90625 
L 95.609375 72.90625 
L 77.296875 0 
L 64.890625 0 
L 49.515625 63.28125 
L 33.984375 0 
L 21.578125 0 
z
" id="DejaVuSans-87"/>
     <path d="M 8.6875 72.90625 
L 18.609375 72.90625 
L 18.609375 28.609375 
Q 18.609375 16.890625 22.84375 11.734375 
Q 27.09375 6.59375 36.625 6.59375 
Q 46.09375 6.59375 50.34375 11.734375 
Q 54.59375 16.890625 54.59375 28.609375 
L 54.59375 72.90625 
L 64.5 72.90625 
L 64.5 27.390625 
Q 64.5 13.140625 57.4375 5.859375 
Q 50.390625 -1.421875 36.625 -1.421875 
Q 22.796875 -1.421875 15.734375 5.859375 
Q 8.6875 13.140625 8.6875 27.390625 
z
" id="DejaVuSans-85"/>
     <path d="M 9.8125 72.90625 
L 23.09375 72.90625 
L 55.421875 11.921875 
L 55.421875 72.90625 
L 64.984375 72.90625 
L 64.984375 0 
L 51.703125 0 
L 19.390625 60.984375 
L 19.390625 0 
L 9.8125 0 
z
" id="DejaVuSans-78"/>
     <path d="M 64.40625 67.28125 
L 64.40625 56.890625 
Q 59.421875 61.53125 53.78125 63.8125 
Q 48.140625 66.109375 41.796875 66.109375 
Q 29.296875 66.109375 22.65625 58.46875 
Q 16.015625 50.828125 16.015625 36.375 
Q 16.015625 21.96875 22.65625 14.328125 
Q 29.296875 6.6875 41.796875 6.6875 
Q 48.140625 6.6875 53.78125 8.984375 
Q 59.421875 11.28125 64.40625 15.921875 
L 64.40625 5.609375 
Q 59.234375 2.09375 53.4375 0.328125 
Q 47.65625 -1.421875 41.21875 -1.421875 
Q 24.65625 -1.421875 15.125 8.703125 
Q 5.609375 18.84375 5.609375 36.375 
Q 5.609375 53.953125 15.125 64.078125 
Q 24.65625 74.21875 41.21875 74.21875 
Q 47.75 74.21875 53.53125 72.484375 
Q 59.328125 70.75 64.40625 67.28125 
z
" id="DejaVuSans-67"/>
    </defs>
    <g transform="translate(402.39875 16.318125)scale(0.12 -0.12)">
     <use xlink:href="#DejaVuSans-82"/>
     <use x="69.451172" xlink:href="#DejaVuSans-97"/>
     <use x="130.730469" xlink:href="#DejaVuSans-110"/>
     <use x="194.109375" xlink:href="#DejaVuSans-107"/>
     <use x="252.019531" xlink:href="#DejaVuSans-105"/>
     <use x="279.802734" xlink:href="#DejaVuSans-110"/>
     <use x="343.181641" xlink:href="#DejaVuSans-103"/>
     <use x="406.658203" xlink:href="#DejaVuSans-32"/>
     <use x="438.445312" xlink:href="#DejaVuSans-100"/>
     <use x="501.921875" xlink:href="#DejaVuSans-101"/>
     <use x="563.445312" xlink:href="#DejaVuSans-32"/>
     <use x="595.232422" xlink:href="#DejaVuSans-65"/>
     <use x="663.625" xlink:href="#DejaVuSans-99"/>
     <use x="718.605469" xlink:href="#DejaVuSans-99"/>
     <use x="773.585938" xlink:href="#DejaVuSans-101"/>
     <use x="835.109375" xlink:href="#DejaVuSans-115"/>
     <use x="887.208984" xlink:href="#DejaVuSans-105"/>
     <use x="914.992188" xlink:href="#DejaVuSans-98"/>
     <use x="978.46875" xlink:href="#DejaVuSans-105"/>
     <use x="1006.251953" xlink:href="#DejaVuSans-108"/>
     <use x="1034.035156" xlink:href="#DejaVuSans-105"/>
     <use x="1061.818359" xlink:href="#DejaVuSans-100"/>
     <use x="1125.294922" xlink:href="#DejaVuSans-97"/>
     <use x="1186.574219" xlink:href="#DejaVuSans-100"/>
     <use x="1250.050781" xlink:href="#DejaVuSans-32"/>
     <use x="1281.837891" xlink:href="#DejaVuSans-87"/>
     <use x="1380.636719" xlink:href="#DejaVuSans-101"/>
     <use x="1442.160156" xlink:href="#DejaVuSans-98"/>
     <use x="1505.636719" xlink:href="#DejaVuSans-32"/>
     <use x="1537.423828" xlink:href="#DejaVuSans-101"/>
     <use x="1598.947266" xlink:href="#DejaVuSans-110"/>
     <use x="1662.326172" xlink:href="#DejaVuSans-32"/>
     <use x="1694.113281" xlink:href="#DejaVuSans-108"/>
     <use x="1721.896484" xlink:href="#DejaVuSans-97"/>
     <use x="1783.175781" xlink:href="#DejaVuSans-32"/>
     <use x="1814.962891" xlink:href="#DejaVuSans-85"/>
     <use x="1888.15625" xlink:href="#DejaVuSans-78"/>
     <use x="1962.960938" xlink:href="#DejaVuSans-82"/>
     <use x="2032.365234" xlink:href="#DejaVuSans-67"/>
    </g>
   </g>
  </g>
 </g>
 <defs>
  <clipPath id="p553b33e1c9">
   <rect height="543.6" width="558" x="249.531875" y="22.318125"/>
  </clipPath>
 </defs>
</svg>
